name Walk10.mot
datacolumns 19
datarows 22
range 2.29200000 2.31300000
endheader

                time	   L_ground_force_vx	   L_ground_force_vy	   L_ground_force_vz	   L_ground_force_px	   L_ground_force_py	   L_ground_force_pz	   R_ground_force_vx	   R_ground_force_vy	   R_ground_force_vz	   R_ground_force_px	   R_ground_force_py	   R_ground_force_pz	   L_ground_torque_x	   L_ground_torque_y	   L_ground_torque_z	   R_ground_torque_x	   R_ground_torque_y	   R_ground_torque_z	
          2.29200000	          0.00000000	          0.00000000	          0.00000000	          0.00000000	          0.00000000	          0.00000000	         10.77747666	         46.69020140	          0.77029984	          0.59904567	          0.00000000	          0.08350478	          0.00000000	          0.00000000	          0.00000000	          0.00000000	         -0.00561924	          0.00000000	
          2.29300000	          0.00000000	          0.00000000	          0.00000000	          0.00000000	          0.00000000	          0.00000000	          9.85750174	         43.26096094	          0.53361351	          0.60017605	          0.00000000	          0.08257197	          0.00000000	          0.00000000	          0.00000000	          0.00000000	          0.01799214	          0.00000000	
          2.29400000	          0.00000000	          0.00000000	          0.00000000	          0.00000000	          0.00000000	          0.00000000	          9.02791793	         40.02528427	          0.31389573	          0.60183676	          0.00000000	          0.08127582	          0.00000000	          0.00000000	          0.00000000	          0.00000000	          0.04904002	          0.00000000	
          2.29500000	          0.00000000	          0.00000000	          0.00000000	          0.00000000	          0.00000000	          0.00000000	          8.27219683	         37.02282041	          0.08576369	          0.60411268	          0.00000000	          0.07983994	          0.00000000	          0.00000000	          0.00000000	          0.00000000	          0.08440125	          0.00000000	
          2.29600000	          0.00000000	          0.00000000	          0.00000000	          0.00000000	          0.00000000	          0.00000000	          7.55064924	         34.24641533	         -0.16694668	          0.60669964	          0.00000000	          0.07868418	          0.00000000	          0.00000000	          0.00000000	          0.00000000	          0.11262836	          0.00000000	
          2.29700000	          0.00000000	          0.00000000	          0.00000000	          0.00000000	          0.00000000	          0.00000000	          6.82340198	         31.60319900	         -0.44197150	          0.60879409	          0.00000000	          0.07818185	          0.00000000	          0.00000000	          0.00000000	          0.00000000	          0.12225197	          0.00000000	
          2.29800000	          0.00000000	          0.00000000	          0.00000000	          0.00000000	          0.00000000	          0.00000000	          6.06325057	         28.92179484	         -0.71949734	          0.60957139	          0.00000000	          0.07837345	          0.00000000	          0.00000000	          0.00000000	          0.00000000	          0.11146941	          0.00000000	
          2.29900000	          0.00000000	          0.00000000	          0.00000000	          0.00000000	          0.00000000	          0.00000000	          5.24966091	         25.96213458	         -0.95882352	          0.60867114	          0.00000000	          0.07910120	          0.00000000	          0.00000000	          0.00000000	          0.00000000	          0.08995713	          0.00000000	
          2.30000000	          0.00000000	          0.00000000	          0.00000000	          0.00000000	          0.00000000	          0.00000000	          4.35884487	         22.43196513	         -1.10373802	          0.60642807	          0.00000000	          0.08034290	          0.00000000	          0.00000000	          0.00000000	          0.00000000	          0.06798108	          0.00000000	
          2.30100000	          0.00000000	          0.00000000	          0.00000000	          0.00000000	          0.00000000	          0.00000000	          3.37634486	         18.10409125	         -1.10376803	          0.60365438	          0.00000000	          0.08216770	          0.00000000	          0.00000000	          0.00000000	          0.00000000	          0.04701678	          0.00000000	
          2.30200000	          0.00000000	          0.00000000	          0.00000000	          0.00000000	          0.00000000	          0.00000000	          2.34161156	         13.09211592	         -0.94471957	          0.60100693	          0.00000000	          0.08451153	          0.00000000	          0.00000000	          0.00000000	          0.00000000	          0.02604390	          0.00000000	
          2.30300000	          0.00000000	          0.00000000	          0.00000000	          0.00000000	          0.00000000	          0.00000000	          0.00000000	          0.00000000	          0.00000000	          0.00000000	          0.00000000	          0.00000000	          0.00000000	          0.00000000	          0.00000000	          0.00000000	          0.00000000	          0.00000000	
          2.30400000	          0.00000000	          0.00000000	          0.00000000	          0.00000000	          0.00000000	          0.00000000	          0.00000000	          0.00000000	          0.00000000	          0.00000000	          0.00000000	          0.00000000	          0.00000000	          0.00000000	          0.00000000	          0.00000000	          0.00000000	          0.00000000	
          2.30500000	          0.00000000	          0.00000000	          0.00000000	          0.00000000	          0.00000000	          0.00000000	          0.00000000	          0.00000000	          0.00000000	          0.00000000	          0.00000000	          0.00000000	          0.00000000	          0.00000000	          0.00000000	          0.00000000	          0.00000000	          0.00000000	
          2.30600000	          0.00000000	          0.00000000	          0.00000000	          0.00000000	          0.00000000	          0.00000000	          0.00000000	          0.00000000	          0.00000000	          0.00000000	          0.00000000	          0.00000000	          0.00000000	          0.00000000	          0.00000000	          0.00000000	          0.00000000	          0.00000000	
          2.30700000	          0.00000000	          0.00000000	          0.00000000	          0.00000000	          0.00000000	          0.00000000	          0.00000000	          0.00000000	          0.00000000	          0.00000000	          0.00000000	          0.00000000	          0.00000000	          0.00000000	          0.00000000	          0.00000000	          0.00000000	          0.00000000	
          2.30800000	          0.00000000	          0.00000000	          0.00000000	          0.00000000	          0.00000000	          0.00000000	          0.00000000	          0.00000000	          0.00000000	          0.00000000	          0.00000000	          0.00000000	          0.00000000	          0.00000000	          0.00000000	          0.00000000	          0.00000000	          0.00000000	
          2.30900000	          0.00000000	          0.00000000	          0.00000000	          0.00000000	          0.00000000	          0.00000000	          0.00000000	          0.00000000	          0.00000000	          0.00000000	          0.00000000	          0.00000000	          0.00000000	          0.00000000	          0.00000000	          0.00000000	          0.00000000	          0.00000000	
          2.31000000	          0.00000000	          0.00000000	          0.00000000	          0.00000000	          0.00000000	          0.00000000	          0.00000000	          0.00000000	          0.00000000	          0.00000000	          0.00000000	          0.00000000	          0.00000000	          0.00000000	          0.00000000	          0.00000000	          0.00000000	          0.00000000	
          2.31100000	          0.00000000	          0.00000000	          0.00000000	          0.00000000	          0.00000000	          0.00000000	          0.00000000	          0.00000000	          0.00000000	          0.00000000	          0.00000000	          0.00000000	          0.00000000	          0.00000000	          0.00000000	          0.00000000	          0.00000000	          0.00000000	
          2.31200000	          0.00000000	          0.00000000	          0.00000000	          0.00000000	          0.00000000	          0.00000000	          0.00000000	          0.00000000	          0.00000000	          0.00000000	          0.00000000	          0.00000000	          0.00000000	          0.00000000	          0.00000000	          0.00000000	          0.00000000	          0.00000000	
          2.31300000	          0.00000000	          0.00000000	          0.00000000	          0.00000000	          0.00000000	          0.00000000	          0.00000000	          0.00000000	          0.00000000	          0.00000000	          0.00000000	          0.00000000	          0.00000000	          0.00000000	          0.00000000	          0.00000000	          0.00000000	          0.00000000	
